<?xml version="1.0" encoding="UTF-8"?><svg xmlns="http://www.w3.org/2000/svg" xmlns:xlink="http://www.w3.org/1999/xlink" contentScriptType="text/ecmascript" width="270" zoomAndPan="magnify" contentStyleType="text/css" viewBox="0 0 270 269.999989" height="269.999989" preserveAspectRatio="xMidYMid meet" version="1.0"><defs><clipPath id="clip-0"><path d="M 0 18.332031 L 267.75 18.332031 L 267.75 251.582031 L 0 251.582031 Z M 0 18.332031 " clip-rule="nonzero"/></clipPath><clipPath id="clip-1"><path d="M 122 75.207031 L 208 75.207031 L 208 145 L 122 145 Z M 122 75.207031 " clip-rule="nonzero"/></clipPath><clipPath id="clip-2"><path d="M 50.09375 146 L 219 146 L 219 210.207031 L 50.09375 210.207031 Z M 50.09375 146 " clip-rule="nonzero"/></clipPath></defs><path fill="rgb(100%, 100%, 100%)" d="M 139.457031 84.777344 L 139.457031 96.640625 L 94.617188 114.359375 L 70.199219 114.359375 C 66.015625 114.359375 62.625 117.742188 62.625 121.917969 L 62.625 151.070312 C 62.625 155.246094 66.015625 158.628906 70.199219 158.628906 L 73.9375 158.628906 L 73.9375 196.78125 L 94.617188 196.78125 L 94.617188 158.628906 L 139.457031 176.347656 L 139.457031 188.210938 L 160.484375 188.210938 L 160.484375 84.777344 Z M 139.457031 84.777344 " fill-opacity="1" fill-rule="nonzero"/><g clip-path="url(#clip-0)"><path fill="rgb(0.779724%, 0.779724%, 53.329468%)" d="M 244.207031 18.316406 L 23.542969 18.316406 C 10.625 18.316406 0.117188 28.808594 0.117188 41.707031 L 0.117188 228.152344 C 0.117188 241.050781 10.625 251.546875 23.542969 251.546875 L 244.207031 251.546875 C 257.125 251.546875 267.632812 241.050781 267.632812 228.152344 L 267.632812 41.707031 C 267.632812 28.808594 257.125 18.316406 244.207031 18.316406 Z M 10.566406 41.707031 C 10.566406 34.5625 16.386719 28.75 23.542969 28.75 L 244.207031 28.75 C 251.363281 28.75 257.183594 34.5625 257.183594 41.707031 L 257.183594 57.300781 L 10.566406 57.300781 Z M 257.183594 228.152344 C 257.183594 235.296875 251.363281 241.109375 244.207031 241.109375 L 23.542969 241.109375 C 16.386719 241.109375 10.566406 235.296875 10.566406 228.152344 L 10.566406 67.734375 L 257.183594 67.734375 Z M 257.183594 228.152344 " fill-opacity="1" fill-rule="nonzero"/></g><path fill="rgb(0.779724%, 0.779724%, 53.329468%)" d="M 188.324219 41.03125 C 187.46875 38.976562 185.351562 37.664062 183.125 37.824219 C 180.957031 37.980469 179.082031 39.507812 178.480469 41.59375 C 177.878906 43.683594 178.6875 46 180.460938 47.265625 C 182.210938 48.515625 184.609375 48.554688 186.402344 47.363281 C 188.449219 46.003906 189.269531 43.292969 188.324219 41.03125 Z M 188.324219 41.03125 " fill-opacity="1" fill-rule="nonzero"/><path fill="rgb(0.779724%, 0.779724%, 53.329468%)" d="M 211.136719 41.03125 C 210.28125 38.976562 208.164062 37.664062 205.9375 37.824219 C 203.773438 37.980469 201.890625 39.507812 201.289062 41.59375 C 200.6875 43.691406 201.5 45.992188 203.273438 47.265625 C 205.015625 48.519531 207.425781 48.554688 209.214844 47.363281 C 211.261719 46 212.082031 43.296875 211.136719 41.03125 Z M 211.136719 41.03125 " fill-opacity="1" fill-rule="nonzero"/><path fill="rgb(0.779724%, 0.779724%, 53.329468%)" d="M 233.949219 41.03125 C 233.105469 38.976562 230.96875 37.664062 228.75 37.824219 C 226.582031 37.980469 224.699219 39.507812 224.101562 41.59375 C 223.5 43.691406 224.3125 45.992188 226.085938 47.265625 C 227.828125 48.515625 230.238281 48.554688 232.023438 47.363281 C 234.070312 46 234.894531 43.296875 233.949219 41.03125 Z M 233.949219 41.03125 " fill-opacity="1" fill-rule="nonzero"/><path fill="rgb(0.779724%, 0.779724%, 53.329468%)" d="M 98.34375 37.808594 L 38.625 37.808594 C 35.738281 37.808594 33.398438 40.144531 33.398438 43.023438 C 33.398438 45.90625 35.738281 48.242188 38.625 48.242188 L 98.34375 48.242188 C 101.230469 48.242188 103.570312 45.90625 103.570312 43.023438 C 103.570312 40.144531 101.230469 37.808594 98.34375 37.808594 Z M 98.34375 37.808594 " fill-opacity="1" fill-rule="nonzero"/><path fill="rgb(0.779724%, 0.779724%, 53.329468%)" d="M 99.132812 229.679688 L 168.617188 229.679688 C 171.503906 229.679688 173.84375 227.34375 173.84375 224.460938 C 173.84375 221.578125 171.503906 219.246094 168.617188 219.246094 L 99.132812 219.246094 C 96.246094 219.246094 93.90625 221.578125 93.90625 224.460938 C 93.90625 227.34375 96.246094 229.679688 99.132812 229.679688 Z M 99.132812 229.679688 " fill-opacity="1" fill-rule="nonzero"/><path fill="rgb(0.779724%, 0.779724%, 53.329468%)" d="M 187.199219 157.132812 C 185.160156 159.167969 185.160156 162.472656 187.199219 164.511719 C 188.21875 165.527344 189.558594 166.039062 190.894531 166.039062 C 192.230469 166.039062 193.570312 165.527344 194.589844 164.511719 C 208.632812 150.488281 208.632812 127.671875 194.589844 113.648438 C 192.546875 111.613281 189.238281 111.613281 187.199219 113.648438 C 185.15625 115.6875 185.160156 118.992188 187.199219 121.027344 C 197.167969 130.980469 197.167969 147.179688 187.199219 157.132812 Z M 187.199219 157.132812 " fill-opacity="1" fill-rule="nonzero"/><path fill="rgb(0.779724%, 0.779724%, 53.329468%)" d="M 176.167969 148.277344 C 177.1875 149.296875 178.527344 149.808594 179.863281 149.808594 C 181.199219 149.808594 182.539062 149.296875 183.558594 148.277344 C 188.636719 143.207031 188.636719 134.953125 183.558594 129.882812 C 181.515625 127.84375 178.207031 127.84375 176.167969 129.882812 C 174.128906 131.917969 174.128906 135.222656 176.167969 137.257812 C 176.824219 137.914062 176.921875 138.683594 176.921875 139.078125 C 176.921875 139.476562 176.824219 140.246094 176.167969 140.902344 C 174.128906 142.9375 174.128906 146.242188 176.167969 148.277344 Z M 176.167969 148.277344 " fill-opacity="1" fill-rule="nonzero"/><path fill="rgb(100%, 100%, 100%)" d="M 121.339844 88.652344 L 214.339844 88.652344 L 214.339844 181.652344 L 121.339844 181.652344 Z M 121.339844 88.652344 " fill-opacity="1" fill-rule="nonzero"/><g clip-path="url(#clip-1)"><path fill="rgb(100%, 74.119568%, 73.728943%)" d="M 203.261719 75.335938 L 127.199219 75.335938 C 124.808594 75.335938 122.871094 77.277344 122.871094 79.671875 L 122.871094 132.683594 C 122.871094 135.078125 124.808594 137.023438 127.199219 137.023438 L 158.085938 137.023438 L 165.230469 144.625 L 172.378906 137.023438 L 203.261719 137.023438 C 205.65625 137.023438 207.59375 135.082031 207.59375 132.683594 L 207.59375 79.671875 C 207.59375 77.277344 205.65625 75.335938 203.261719 75.335938 Z M 203.261719 75.335938 " fill-opacity="1" fill-rule="nonzero"/></g><path fill="rgb(0.779724%, 0.779724%, 53.329468%)" d="M 143.949219 120.136719 C 145.644531 120.785156 147.539062 119.933594 148.1875 118.234375 L 149.394531 115.058594 L 157.847656 115.058594 L 159.039062 118.226562 C 159.535156 119.542969 160.785156 120.355469 162.113281 120.355469 C 162.5 120.355469 162.890625 120.285156 163.273438 120.140625 C 164.96875 119.5 165.828125 117.601562 165.1875 115.902344 L 157.175781 94.636719 C 157.164062 94.605469 157.152344 94.578125 157.140625 94.546875 C 156.554688 93.125 155.1875 92.207031 153.652344 92.207031 L 153.648438 92.207031 C 152.109375 92.207031 150.742188 93.128906 150.160156 94.554688 C 150.148438 94.578125 150.140625 94.605469 150.128906 94.628906 L 142.046875 115.890625 C 141.402344 117.589844 142.253906 119.492188 143.949219 120.136719 Z M 155.367188 108.476562 L 151.894531 108.476562 L 153.640625 103.890625 Z M 155.367188 108.476562 " fill-opacity="1" fill-rule="nonzero"/><path fill="rgb(0.779724%, 0.779724%, 53.329468%)" d="M 168.71875 119.078125 C 169.335938 119.691406 170.167969 120.035156 171.035156 120.035156 L 171.046875 120.035156 C 171.226562 120.035156 175.449219 120.019531 177.140625 119.988281 C 183.800781 119.871094 188.632812 114.105469 188.632812 106.28125 C 188.632812 98.050781 183.921875 92.523438 176.910156 92.523438 L 170.992188 92.523438 C 170.121094 92.523438 169.285156 92.871094 168.667969 93.492188 C 168.050781 94.109375 167.707031 94.949219 167.707031 95.820312 L 167.75 116.75 C 167.753906 117.625 168.101562 118.460938 168.71875 119.078125 Z M 176.910156 99.105469 C 181.691406 99.105469 182.0625 104.597656 182.0625 106.28125 C 182.0625 109.785156 180.503906 113.347656 177.027344 113.40625 C 176.386719 113.417969 175.347656 113.429688 174.3125 113.4375 L 174.285156 99.105469 Z M 176.910156 99.105469 " fill-opacity="1" fill-rule="nonzero"/><g clip-path="url(#clip-2)"><path fill="rgb(0.779724%, 0.779724%, 53.329468%)" d="M 215.070312 161.3125 C 215.070312 161.308594 215.070312 161.308594 215.070312 161.3125 C 212.859375 158.882812 209.839844 157.464844 206.570312 157.320312 C 203.300781 157.175781 200.167969 158.320312 197.777344 160.523438 L 173.5625 182.445312 L 138.464844 182.445312 L 138.460938 175.636719 L 169.21875 175.796875 C 172.332031 175.800781 175.261719 174.613281 177.46875 172.414062 C 179.679688 170.210938 180.898438 167.273438 180.898438 164.148438 C 180.898438 157.726562 175.6875 152.503906 169.285156 152.503906 L 138.753906 152.503906 C 134.410156 148.4375 128.800781 146.21875 122.804688 146.21875 C 116.699219 146.21875 110.859375 148.546875 106.371094 152.777344 C 102.847656 156.09375 100.511719 160.3125 99.699219 164.695312 L 91.050781 164.695312 L 91.050781 162.832031 C 91.050781 161.011719 89.582031 159.539062 87.765625 159.539062 L 53.378906 159.539062 C 51.566406 159.539062 50.09375 161.011719 50.09375 162.832031 L 50.09375 200.433594 C 50.09375 202.25 51.566406 203.722656 53.378906 203.722656 L 87.765625 203.722656 C 89.582031 203.722656 91.050781 202.25 91.050781 200.433594 L 91.050781 198.570312 L 101.617188 198.570312 C 105.71875 207.84375 115.046875 209.371094 124.332031 210.09375 C 124.417969 210.101562 124.5 210.105469 124.585938 210.105469 L 124.589844 210.105469 L 167.730469 210.046875 C 177.894531 210.03125 187.800781 205.84375 194.914062 198.558594 L 214.375 178.621094 C 219.285156 174.035156 219.601562 166.289062 215.070312 161.3125 Z M 84.484375 197.144531 L 56.664062 197.144531 L 56.664062 166.121094 L 84.484375 166.121094 Z M 209.863281 173.839844 C 209.820312 173.878906 209.777344 173.921875 209.734375 173.960938 L 190.214844 193.957031 C 184.332031 199.988281 176.132812 203.453125 167.71875 203.464844 L 124.714844 203.523438 C 114.625 202.726562 109.117188 201.066406 107.03125 194.304688 C 106.605469 192.925781 105.335938 191.988281 103.894531 191.988281 L 91.050781 191.988281 L 91.050781 171.277344 L 99.378906 171.277344 L 99.378906 175.210938 C 99.378906 177.027344 100.851562 178.5 102.664062 178.5 C 104.480469 178.5 105.949219 177.027344 105.949219 175.210938 L 105.949219 168.007812 C 106.039062 159.902344 113.910156 152.796875 122.804688 152.796875 C 127.46875 152.796875 131.804688 154.667969 135.019531 158.058594 C 135.640625 158.714844 136.5 159.085938 137.402344 159.085938 L 169.285156 159.085938 C 172.066406 159.085938 174.328125 161.355469 174.328125 164.148438 C 174.328125 165.507812 173.796875 166.785156 172.835938 167.746094 C 171.882812 168.691406 170.625 169.214844 169.285156 169.214844 C 169.273438 169.214844 169.265625 169.214844 169.253906 169.214844 L 135.191406 169.039062 L 135.175781 169.039062 C 134.304688 169.039062 133.472656 169.382812 132.855469 169.996094 C 132.238281 170.613281 131.886719 171.453125 131.890625 172.332031 L 131.894531 185.734375 C 131.894531 187.550781 133.367188 189.023438 135.179688 189.023438 L 174.824219 189.023438 C 175.640625 189.023438 176.425781 188.722656 177.027344 188.175781 L 202.199219 165.390625 C 203.320312 164.359375 204.765625 163.828125 206.28125 163.898438 C 207.792969 163.964844 209.191406 164.621094 210.214844 165.746094 C 212.335938 168.074219 212.179688 171.707031 209.863281 173.839844 Z M 209.863281 173.839844 " fill-opacity="1" fill-rule="nonzero"/></g></svg>