<?xml version="1.0" encoding="UTF-8"?><svg xmlns="http://www.w3.org/2000/svg" xmlns:xlink="http://www.w3.org/1999/xlink" contentScriptType="text/ecmascript" width="270" zoomAndPan="magnify" contentStyleType="text/css" viewBox="0 0 270 269.999989" height="269.999989" preserveAspectRatio="xMidYMid meet" version="1.0"><defs><clipPath id="clip-0"><path d="M 1.558594 0 L 207.058594 0 L 207.058594 205.5 L 1.558594 205.5 Z M 1.558594 0 " clip-rule="nonzero"/></clipPath><clipPath id="clip-1"><path d="M 151 45 L 266 45 L 266 158 L 151 158 Z M 151 45 " clip-rule="nonzero"/></clipPath><clipPath id="clip-2"><path d="M 135.003906 125.78125 L 209.261719 19.382812 L 286.140625 73.035156 L 211.878906 179.433594 Z M 135.003906 125.78125 " clip-rule="nonzero"/></clipPath><clipPath id="clip-3"><path d="M 135.003906 125.78125 L 209.261719 19.382812 L 286.140625 73.035156 L 211.878906 179.433594 Z M 135.003906 125.78125 " clip-rule="nonzero"/></clipPath><clipPath id="clip-4"><path d="M 108 113.324219 L 263.691406 113.324219 L 263.691406 262.574219 L 108 262.574219 Z M 108 113.324219 " clip-rule="nonzero"/></clipPath></defs><g clip-path="url(#clip-0)"><path fill="rgb(0.779724%, 3.138733%, 29.40979%)" d="M 104.90625 0.0351562 C 104.710938 0.0351562 104.515625 0 104.316406 0 C 104.140625 0 103.96875 0.0351562 103.789062 0.0351562 C 47.375 0.3125 1.558594 46.273438 1.558594 102.75 C 1.558594 159.40625 47.652344 205.5 104.308594 205.5 C 160.964844 205.5 207.058594 159.40625 207.058594 102.75 C 207.058594 46.300781 161.285156 0.355469 104.90625 0.0351562 Z M 177.851562 44.675781 L 152.332031 44.675781 C 147.417969 31.800781 140.96875 21.246094 133.488281 13.632812 C 151.171875 19.449219 166.53125 30.378906 177.851562 44.675781 Z M 108.777344 9.390625 C 122.054688 11.8125 134.339844 24.847656 142.65625 44.675781 L 108.777344 44.675781 Z M 99.839844 9.390625 L 99.839844 44.675781 L 65.960938 44.675781 C 74.277344 24.847656 86.5625 11.8125 99.839844 9.390625 Z M 75.164062 13.632812 C 67.675781 21.246094 61.226562 31.800781 56.300781 44.675781 L 30.765625 44.675781 C 42.097656 30.371094 57.453125 19.441406 75.164062 13.632812 Z M 30.765625 160.824219 L 56.292969 160.824219 C 61.214844 173.710938 67.675781 184.261719 75.164062 191.875 C 57.464844 186.074219 42.097656 175.140625 30.765625 160.824219 Z M 99.839844 196.109375 C 86.5625 193.695312 74.277344 180.660156 65.960938 160.824219 L 99.839844 160.824219 Z M 108.777344 196.109375 L 108.777344 160.824219 L 142.640625 160.824219 C 134.328125 180.652344 122.054688 193.679688 108.777344 196.109375 Z M 133.445312 191.882812 C 140.933594 184.269531 147.390625 173.71875 152.304688 160.835938 L 177.84375 160.835938 C 166.523438 175.140625 151.152344 186.074219 133.445312 191.882812 Z M 184.070312 151.890625 L 155.328125 151.890625 C 156.53125 147.898438 157.632812 143.761719 158.5625 139.417969 C 159.078125 137.007812 157.542969 134.636719 155.128906 134.121094 C 152.699219 133.558594 150.339844 135.136719 149.832031 137.550781 C 148.757812 142.589844 147.4375 147.363281 145.953125 151.890625 L 108.777344 151.890625 L 108.777344 138.488281 C 108.777344 136.023438 106.773438 134.023438 104.308594 134.023438 C 101.84375 134.023438 99.839844 136.023438 99.839844 138.488281 L 99.839844 151.890625 L 62.644531 151.890625 C 61.164062 147.363281 59.839844 142.589844 58.769531 137.550781 C 58.257812 135.136719 55.863281 133.558594 53.46875 134.121094 C 51.058594 134.628906 49.519531 137.007812 50.039062 139.417969 C 50.96875 143.761719 52.066406 147.90625 53.28125 151.890625 L 24.546875 151.890625 C 16.433594 138.773438 11.492188 123.550781 10.726562 107.21875 L 32.832031 107.21875 C 35.296875 107.21875 37.296875 105.214844 37.296875 102.75 C 37.296875 100.285156 35.296875 98.28125 32.832031 98.28125 L 10.714844 98.28125 C 11.492188 81.949219 16.425781 66.726562 24.539062 53.609375 L 53.28125 53.609375 C 52.074219 57.601562 50.976562 61.738281 50.046875 66.082031 C 49.53125 68.484375 51.066406 70.851562 53.480469 71.371094 C 55.882812 71.898438 58.257812 70.363281 58.777344 67.941406 C 59.847656 62.910156 61.171875 58.136719 62.65625 53.609375 L 99.839844 53.609375 L 99.839844 67.011719 C 99.839844 69.476562 101.84375 71.476562 104.308594 71.476562 C 106.773438 71.476562 108.777344 69.476562 108.777344 67.011719 L 108.777344 53.609375 L 145.960938 53.609375 C 147.445312 58.136719 148.769531 62.902344 149.839844 67.941406 C 150.285156 70.039062 152.136719 71.476562 154.199219 71.476562 C 154.511719 71.476562 154.824219 71.453125 155.15625 71.371094 C 157.570312 70.863281 159.105469 68.484375 158.585938 66.074219 C 157.65625 61.738281 156.558594 57.601562 155.351562 53.609375 L 184.078125 53.609375 C 192.191406 66.726562 197.132812 81.949219 197.902344 98.28125 L 175.785156 98.28125 C 173.320312 98.28125 171.320312 100.285156 171.320312 102.75 C 171.320312 105.214844 173.320312 107.21875 175.785156 107.21875 L 197.902344 107.21875 C 197.125 123.558594 192.183594 138.785156 184.070312 151.890625 Z M 144.515625 80.414062 C 134.660156 80.414062 126.644531 88.425781 126.644531 98.28125 L 126.644531 107.21875 C 126.644531 117.074219 134.660156 125.085938 144.515625 125.085938 C 154.371094 125.085938 162.382812 117.074219 162.382812 107.21875 L 162.382812 98.28125 C 162.382812 88.425781 154.371094 80.414062 144.515625 80.414062 Z M 153.449219 107.21875 C 153.449219 112.140625 149.4375 116.152344 144.515625 116.152344 C 139.59375 116.152344 135.582031 112.140625 135.582031 107.21875 L 135.582031 98.28125 C 135.582031 93.359375 139.59375 89.347656 144.515625 89.347656 C 149.4375 89.347656 153.449219 93.359375 153.449219 98.28125 Z M 65.496094 98.453125 L 64.171875 98.230469 C 56.335938 96.953125 55.167969 94.914062 55.167969 93.816406 C 55.167969 92.039062 58.730469 89.347656 64.109375 89.347656 C 69.390625 89.347656 72.875 91.859375 73.054688 93.664062 C 73.285156 96.113281 75.46875 97.96875 77.925781 97.683594 C 80.382812 97.453125 82.175781 95.273438 81.945312 92.816406 C 81.265625 85.738281 73.601562 80.402344 64.101562 80.402344 C 54.078125 80.402344 46.222656 86.292969 46.222656 93.804688 C 46.222656 100.800781 51.773438 105.25 62.726562 107.039062 L 63.449219 102.632812 L 64.046875 107.261719 C 71.472656 108.484375 73.027344 110.34375 73.027344 111.683594 C 73.027344 113.460938 69.464844 116.152344 64.085938 116.152344 C 58.804688 116.152344 55.320312 113.632812 55.140625 111.828125 C 54.90625 109.378906 52.726562 107.496094 50.269531 107.808594 C 47.8125 108.039062 46.019531 110.21875 46.25 112.675781 C 46.929688 119.761719 54.59375 125.085938 64.09375 125.085938 C 74.117188 125.085938 81.972656 119.199219 81.972656 111.683594 C 81.972656 104.699219 76.433594 100.25 65.496094 98.453125 Z M 117.710938 89.347656 C 120.175781 89.347656 122.179688 87.347656 122.179688 84.878906 C 122.179688 82.414062 120.175781 80.414062 117.710938 80.414062 L 95.375 80.414062 C 92.90625 80.414062 90.90625 82.414062 90.90625 84.878906 L 90.90625 120.621094 C 90.90625 123.085938 92.90625 125.085938 95.375 125.085938 L 117.710938 125.085938 C 120.175781 125.085938 122.179688 123.085938 122.179688 120.621094 C 122.179688 118.152344 120.175781 116.152344 117.710938 116.152344 L 99.839844 116.152344 L 99.839844 107.21875 L 113.242188 107.21875 C 115.710938 107.21875 117.710938 105.214844 117.710938 102.75 C 117.710938 100.285156 115.710938 98.28125 113.242188 98.28125 L 99.839844 98.28125 L 99.839844 89.347656 Z M 117.710938 89.347656 " fill-opacity="1" fill-rule="nonzero"/></g><g clip-path="url(#clip-1)"><g clip-path="url(#clip-2)"><g clip-path="url(#clip-3)"><path fill="rgb(1.959229%, 3.919983%, 18.818665%)" d="M 249.664062 86.8125 C 247.414062 91.929688 245.425781 96.578125 243.34375 101.175781 C 239.644531 109.359375 235.613281 117.375 230.65625 124.878906 C 229.210938 127.0625 227.113281 128.835938 225.824219 131.089844 C 222.960938 136.050781 218.839844 139.9375 215.046875 144.0625 C 212 147.378906 208.457031 150.363281 204.75 152.945312 C 197.117188 158.257812 188.90625 158.59375 180.433594 154.847656 C 170.480469 150.453125 163.230469 143.320312 158.496094 133.574219 C 154.074219 124.480469 152.027344 114.757812 151.046875 104.769531 C 150.988281 104.125 151.078125 103.460938 151.164062 102.816406 C 151.183594 102.644531 151.449219 102.496094 151.597656 102.34375 C 156.566406 102.988281 159.929688 106.0625 161.296875 110.78125 C 163.324219 117.796875 165.367188 124.824219 167.734375 131.734375 C 169.417969 136.664062 171.933594 141.253906 175.101562 145.453125 C 176.867188 147.804688 179.015625 148.808594 181.945312 148.675781 C 186.039062 148.472656 189.773438 147.21875 193.296875 145.230469 C 198.183594 142.46875 202.257812 138.726562 205.996094 134.582031 C 212.128906 127.773438 216.929688 120.058594 221.402344 112.113281 C 228.15625 100.105469 233.808594 87.582031 238.796875 74.753906 C 239.105469 73.953125 239.265625 73.101562 239.6875 71.550781 C 238.277344 72.632812 237.410156 73.25 236.597656 73.914062 C 232.460938 77.273438 228.375 80.695312 224.203125 84 C 220.378906 87.035156 219.609375 86.976562 215.9375 83.902344 C 211.25 79.988281 211.242188 79.203125 215.671875 75.078125 C 221.773438 69.410156 227.921875 63.804688 233.910156 58.015625 C 237.253906 54.78125 240.304688 51.238281 243.503906 47.847656 C 244.234375 47.0625 245.03125 46.339844 245.941406 45.453125 C 248.347656 47.183594 250.738281 48.53125 252.648438 50.382812 C 255.65625 53.300781 257.878906 56.5625 257.628906 61.285156 C 257.359375 66.46875 257.910156 71.6875 258.074219 76.894531 C 258.265625 82.929688 259.53125 88.769531 261.320312 94.488281 C 261.835938 96.136719 262.875 97.628906 263.703125 99.171875 C 264.25 100.1875 264.855469 101.15625 265.613281 102.445312 C 263.066406 102.84375 261.515625 101.9375 260.027344 100.777344 C 256.277344 97.867188 253.378906 94.289062 251.339844 90.015625 C 250.859375 89.074219 250.351562 88.152344 249.664062 86.8125 Z M 238.859375 106.859375 C 239.515625 106.054688 240.359375 105.335938 240.789062 104.421875 C 242.832031 100.070312 244.769531 95.664062 246.714844 91.246094 C 247.296875 89.640625 247.878906 88.035156 248.460938 86.425781 C 248.242188 86.367188 248.023438 86.308594 247.8125 86.257812 C 247.460938 87.949219 247.113281 89.648438 246.761719 91.339844 C 246.167969 92.058594 245.382812 92.691406 244.996094 93.511719 C 242.90625 97.964844 240.917969 102.457031 238.90625 106.957031 C 238.011719 108.726562 237.117188 110.5 236.222656 112.269531 C 236.484375 112.371094 236.753906 112.476562 237.015625 112.574219 C 237.628906 110.671875 238.246094 108.765625 238.859375 106.859375 Z M 231.859375 121.402344 C 231.738281 121.296875 231.605469 121.183594 231.480469 121.085938 C 231.214844 121.492188 230.964844 121.898438 230.699219 122.304688 C 230.796875 122.371094 230.886719 122.4375 230.984375 122.503906 C 231.269531 122.140625 231.5625 121.765625 231.859375 121.402344 Z M 231.859375 121.402344 " fill-opacity="1" fill-rule="nonzero"/></g></g></g><path fill="rgb(100%, 100%, 100%)" d="M 159.066406 113.324219 C 130.691406 113.324219 107.691406 136.324219 107.691406 164.699219 C 107.691406 193.074219 130.691406 216.074219 159.066406 216.074219 C 187.441406 216.074219 210.441406 193.074219 210.441406 164.699219 C 210.441406 136.324219 187.441406 113.324219 159.066406 113.324219 Z M 159.066406 113.324219 " fill-opacity="1" fill-rule="nonzero"/><path fill="rgb(96.078491%, 66.668701%, 10.5896%)" d="M 116.140625 168.023438 C 115.25 143.3125 134.578125 122.558594 159.308594 121.667969 C 184.039062 120.777344 204.8125 140.085938 205.703125 164.800781 C 206.59375 189.511719 187.269531 210.265625 162.535156 211.15625 C 137.804688 212.046875 117.03125 192.738281 116.140625 168.023438 Z M 212.804688 208.695312 C 213.878906 207.539062 213.8125 205.714844 212.65625 204.640625 L 203.421875 196.058594 C 209.648438 187.15625 213.140625 176.234375 212.71875 164.546875 C 211.6875 135.964844 187.660156 113.628906 159.054688 114.660156 C 130.449219 115.6875 108.09375 139.695312 109.125 168.277344 C 110.15625 196.863281 134.183594 219.199219 162.789062 218.167969 C 174.488281 217.746094 185.136719 213.480469 193.574219 206.632812 L 202.808594 215.21875 C 203.964844 216.292969 205.792969 216.226562 206.867188 215.070312 L 207.390625 214.511719 L 226.273438 232.0625 C 224.578125 234.1875 224.78125 237.3125 226.800781 239.195312 L 249.28125 260.09375 C 251.402344 262.0625 254.75 261.945312 256.722656 259.824219 L 261.066406 255.164062 C 263.039062 253.042969 262.917969 249.699219 260.796875 247.726562 L 238.316406 226.828125 C 236.296875 224.949219 233.160156 224.96875 231.164062 226.8125 L 212.28125 209.257812 L 212.804688 208.695312 " fill-opacity="1" fill-rule="nonzero"/><g clip-path="url(#clip-4)"><path fill="rgb(10.198975%, 19.60907%, 23.919678%)" d="M 117.214844 167.988281 C 118.082031 192.066406 138.40625 210.949219 162.496094 210.085938 C 186.597656 209.214844 205.5 188.917969 204.628906 164.835938 C 203.761719 140.757812 183.441406 121.878906 159.347656 122.742188 C 135.246094 123.609375 116.347656 143.90625 117.214844 167.988281 Z M 160.882812 212.261719 C 149.253906 212.261719 138.226562 207.9375 129.667969 199.976562 C 120.695312 191.636719 115.507812 180.304688 115.066406 168.0625 C 114.625 155.828125 118.980469 144.148438 127.328125 135.183594 C 135.679688 126.21875 147.019531 121.035156 159.269531 120.59375 C 171.519531 120.152344 183.207031 124.503906 192.179688 132.847656 C 201.152344 141.1875 206.335938 152.523438 206.777344 164.761719 C 207.21875 177 202.863281 188.675781 194.515625 197.644531 C 186.167969 206.609375 174.824219 211.789062 162.574219 212.230469 C 162.011719 212.25 161.445312 212.261719 160.882812 212.261719 Z M 207.335938 212.992188 L 227.734375 231.957031 L 227.113281 232.734375 C 225.753906 234.433594 225.941406 236.925781 227.535156 238.40625 L 250.015625 259.308594 C 251.707031 260.878906 254.363281 260.785156 255.9375 259.09375 L 260.28125 254.429688 C 261.039062 253.613281 261.433594 252.550781 261.394531 251.429688 C 261.351562 250.304688 260.882812 249.269531 260.066406 248.511719 L 237.585938 227.613281 C 235.992188 226.132812 233.492188 226.125 231.890625 227.601562 L 231.160156 228.273438 L 210.761719 209.3125 L 212.015625 207.964844 C 212.691406 207.242188 212.652344 206.101562 211.925781 205.425781 L 202.003906 196.207031 L 202.542969 195.441406 C 208.898438 186.359375 212.046875 175.6875 211.644531 164.585938 C 210.636719 136.640625 187.070312 114.726562 159.09375 115.730469 C 131.125 116.738281 109.191406 140.292969 110.199219 168.238281 C 110.6875 181.777344 116.421875 194.3125 126.347656 203.542969 C 136.273438 212.769531 149.203125 217.582031 162.75 217.09375 C 173.863281 216.695312 184.289062 212.789062 192.898438 205.800781 L 193.621094 205.210938 L 203.539062 214.433594 C 203.890625 214.757812 204.347656 214.925781 204.828125 214.910156 C 205.3125 214.890625 205.757812 214.6875 206.082031 214.339844 Z M 252.867188 262.574219 C 251.320312 262.574219 249.769531 262.011719 248.550781 260.878906 L 226.070312 239.980469 C 223.90625 237.96875 223.460938 234.730469 224.871094 232.226562 L 207.4375 216.019531 C 205.933594 217.402344 203.59375 217.414062 202.078125 216.003906 L 193.519531 208.050781 C 184.691406 214.96875 174.097656 218.832031 162.828125 219.242188 C 155.691406 219.496094 148.714844 218.347656 142.097656 215.828125 C 135.707031 213.394531 129.914062 209.789062 124.886719 205.113281 C 119.855469 200.4375 115.839844 194.925781 112.949219 188.730469 C 109.957031 182.316406 108.308594 175.449219 108.050781 168.316406 C 107.792969 161.1875 108.941406 154.21875 111.464844 147.605469 C 113.902344 141.21875 117.507812 135.429688 122.191406 130.40625 C 126.871094 125.378906 132.386719 121.367188 138.585938 118.480469 C 145.007812 115.488281 151.878906 113.84375 159.015625 113.585938 C 166.152344 113.328125 173.128906 114.476562 179.746094 116.996094 C 186.136719 119.429688 191.929688 123.035156 196.960938 127.710938 C 201.988281 132.386719 206.007812 137.898438 208.894531 144.09375 C 211.886719 150.511719 213.535156 157.375 213.792969 164.507812 C 214.199219 175.769531 211.101562 186.601562 204.832031 195.902344 L 213.390625 203.855469 C 214.90625 205.265625 215.058594 207.601562 213.789062 209.195312 L 231.226562 225.402344 C 233.621094 223.816406 236.886719 224.03125 239.050781 226.039062 L 261.53125 246.941406 C 262.765625 248.089844 263.480469 249.65625 263.539062 251.347656 C 263.601562 253.042969 263.003906 254.660156 261.851562 255.890625 L 257.511719 260.554688 C 256.265625 261.894531 254.566406 262.574219 252.867188 262.574219 " fill-opacity="1" fill-rule="nonzero"/></g><path fill="rgb(10.198975%, 19.60907%, 23.919678%)" d="M 145.59375 168.054688 C 145.300781 168.054688 145.007812 168.113281 144.734375 168.234375 L 143.066406 168.960938 C 142.285156 169.300781 141.777344 170.074219 141.777344 170.929688 L 141.777344 185.089844 C 141.777344 186.273438 142.738281 187.234375 143.925781 187.234375 L 154.1875 187.234375 C 155.375 187.234375 156.335938 186.273438 156.335938 185.089844 L 156.335938 175.839844 C 156.335938 174.859375 155.667969 174 154.714844 173.757812 C 154.515625 173.707031 154.332031 173.625 154.164062 173.511719 L 146.8125 168.4375 C 146.449219 168.183594 146.023438 168.054688 145.59375 168.054688 Z M 145.59375 170.203125 L 152.945312 175.277344 C 153.328125 175.542969 153.746094 175.730469 154.1875 175.839844 L 154.1875 185.089844 L 143.925781 185.089844 L 143.925781 170.929688 L 145.59375 170.203125 " fill-opacity="1" fill-rule="nonzero"/><path fill="rgb(10.198975%, 19.60907%, 23.919678%)" d="M 141.921875 169.714844 L 141.78125 169.714844 C 141.484375 169.714844 141.191406 169.777344 140.921875 169.894531 L 132.246094 173.671875 C 132.042969 173.761719 131.832031 173.804688 131.609375 173.8125 C 130.441406 173.839844 129.511719 174.792969 129.511719 175.960938 L 129.511719 185.089844 C 129.511719 186.273438 130.472656 187.234375 131.660156 187.234375 L 141.921875 187.234375 C 143.109375 187.234375 144.070312 186.273438 144.070312 185.089844 L 144.070312 171.863281 C 144.070312 170.679688 143.109375 169.714844 141.921875 169.714844 Z M 141.921875 171.863281 L 141.921875 185.089844 L 131.660156 185.089844 L 131.660156 175.960938 C 132.15625 175.945312 132.644531 175.839844 133.105469 175.640625 L 141.78125 171.863281 L 141.921875 171.863281 " fill-opacity="1" fill-rule="nonzero"/><path fill="rgb(10.198975%, 19.60907%, 23.919678%)" d="M 190.984375 152.082031 C 190.222656 152.082031 189.496094 152.488281 189.109375 153.179688 L 187.488281 156.074219 C 187.367188 156.289062 187.140625 156.421875 186.894531 156.421875 C 186.644531 156.421875 186.4375 156.304688 186.308594 156.089844 L 186.210938 155.929688 C 185.90625 155.421875 185.410156 155.0625 184.832031 154.933594 C 184.679688 154.898438 184.519531 154.882812 184.367188 154.882812 C 183.941406 154.882812 183.519531 155.007812 183.164062 155.25 L 179.519531 157.710938 C 178.929688 158.109375 178.574219 158.773438 178.574219 159.488281 L 178.574219 185.089844 C 178.574219 186.273438 179.535156 187.234375 180.722656 187.234375 L 190.984375 187.234375 C 192.171875 187.234375 193.136719 186.273438 193.136719 185.089844 L 193.136719 154.226562 C 193.136719 153.25 192.476562 152.398438 191.527344 152.148438 C 191.347656 152.101562 191.167969 152.082031 190.984375 152.082031 Z M 190.984375 154.226562 L 190.984375 185.089844 L 180.722656 185.089844 L 180.722656 159.488281 L 184.367188 157.027344 L 184.460938 157.191406 C 184.976562 158.054688 185.886719 158.570312 186.894531 158.570312 C 187.917969 158.570312 188.863281 158.015625 189.363281 157.121094 L 190.984375 154.226562 " fill-opacity="1" fill-rule="nonzero"/><path fill="rgb(10.198975%, 19.60907%, 23.919678%)" d="M 178.71875 158.691406 C 178.300781 158.691406 177.878906 158.816406 177.519531 159.058594 L 167.253906 165.984375 C 166.664062 166.386719 166.308594 167.054688 166.308594 167.765625 L 166.308594 185.089844 C 166.308594 186.273438 167.269531 187.234375 168.457031 187.234375 L 178.71875 187.234375 C 179.90625 187.234375 180.871094 186.273438 180.871094 185.089844 L 180.871094 160.839844 C 180.871094 160.046875 180.429688 159.316406 179.730469 158.945312 C 179.414062 158.773438 179.066406 158.691406 178.71875 158.691406 Z M 178.71875 160.839844 L 178.71875 185.089844 L 168.457031 185.089844 L 168.457031 167.765625 L 178.71875 160.839844 " fill-opacity="1" fill-rule="nonzero"/><path fill="rgb(16.468811%, 59.21936%, 74.119568%)" d="M 145.59375 170.203125 L 143.925781 170.929688 L 143.925781 185.089844 L 154.1875 185.089844 L 154.1875 175.839844 C 153.746094 175.730469 153.328125 175.542969 152.945312 175.277344 L 145.59375 170.203125 " fill-opacity="1" fill-rule="nonzero"/><path fill="rgb(16.468811%, 59.21936%, 74.119568%)" d="M 133.105469 175.640625 C 132.644531 175.839844 132.15625 175.945312 131.660156 175.960938 L 131.660156 185.089844 L 141.921875 185.089844 L 141.921875 171.863281 L 141.78125 171.863281 L 133.105469 175.640625 " fill-opacity="1" fill-rule="nonzero"/><path fill="rgb(16.468811%, 59.21936%, 74.119568%)" d="M 186.894531 158.570312 C 185.886719 158.570312 184.976562 158.054688 184.460938 157.191406 L 184.367188 157.027344 L 180.722656 159.488281 L 180.722656 185.089844 L 190.984375 185.089844 L 190.984375 154.226562 L 189.363281 157.121094 C 188.863281 158.015625 187.917969 158.570312 186.894531 158.570312 " fill-opacity="1" fill-rule="nonzero"/><path fill="rgb(16.468811%, 59.21936%, 74.119568%)" d="M 168.457031 185.089844 L 178.71875 185.089844 L 178.71875 160.839844 L 168.457031 167.765625 L 168.457031 185.089844 " fill-opacity="1" fill-rule="nonzero"/><path fill="rgb(16.468811%, 59.21936%, 74.119568%)" d="M 156.191406 175.8125 L 156.191406 185.089844 L 166.453125 185.089844 L 166.453125 169.117188 L 157.292969 175.300781 C 156.949219 175.53125 156.578125 175.699219 156.191406 175.8125 " fill-opacity="1" fill-rule="nonzero"/><path fill="rgb(10.198975%, 19.60907%, 23.919678%)" d="M 166.453125 166.96875 C 166.035156 166.96875 165.613281 167.09375 165.25 167.339844 L 156.089844 173.519531 C 155.941406 173.621094 155.777344 173.695312 155.601562 173.746094 C 154.679688 174.011719 154.042969 174.851562 154.042969 175.8125 L 154.042969 185.089844 C 154.042969 186.273438 155.003906 187.234375 156.191406 187.234375 L 166.453125 187.234375 C 167.640625 187.234375 168.605469 186.273438 168.605469 185.089844 L 168.605469 169.117188 C 168.605469 168.324219 168.164062 167.59375 167.460938 167.222656 C 167.148438 167.054688 166.800781 166.96875 166.453125 166.96875 Z M 166.453125 169.117188 L 166.453125 185.089844 L 156.191406 185.089844 L 156.191406 175.8125 C 156.578125 175.699219 156.949219 175.53125 157.292969 175.300781 L 166.453125 169.117188 " fill-opacity="1" fill-rule="nonzero"/><path fill="rgb(96.078491%, 66.668701%, 10.5896%)" d="M 190.523438 141.804688 L 181.421875 141.945312 C 180.9375 141.949219 180.640625 142.480469 180.890625 142.894531 L 182.5625 145.695312 L 154.339844 164.742188 L 146.152344 159.089844 C 145.683594 158.765625 145.078125 158.707031 144.554688 158.9375 L 130.851562 164.898438 L 130.851562 168.386719 C 131.042969 168.378906 131.234375 168.332031 131.417969 168.253906 L 145.03125 162.328125 L 153.390625 168.097656 C 153.949219 168.484375 154.6875 168.488281 155.253906 168.109375 L 184.257812 148.535156 L 185.546875 150.695312 C 185.796875 151.113281 186.402344 151.101562 186.636719 150.679688 L 191.082031 142.742188 C 191.320312 142.320312 191.007812 141.796875 190.523438 141.804688 " fill-opacity="1" fill-rule="nonzero"/><path fill="rgb(10.198975%, 19.60907%, 23.919678%)" d="M 190.535156 139.660156 L 190.488281 139.660156 L 181.386719 139.796875 C 180.398438 139.8125 179.484375 140.359375 179.003906 141.21875 C 178.519531 142.085938 178.535156 143.144531 179.042969 143.996094 L 179.675781 145.054688 L 154.351562 162.140625 L 147.375 157.324219 C 146.734375 156.882812 145.988281 156.652344 145.214844 156.652344 C 144.6875 156.652344 144.175781 156.757812 143.695312 156.96875 L 129.996094 162.929688 L 128.703125 163.492188 L 128.703125 170.664062 L 130.976562 170.53125 C 131.429688 170.503906 131.867188 170.402344 132.273438 170.222656 L 144.792969 164.773438 L 152.167969 169.867188 C 152.804688 170.308594 153.554688 170.539062 154.328125 170.539062 C 155.089844 170.539062 155.824219 170.3125 156.457031 169.886719 L 183.578125 151.585938 L 183.703125 151.796875 C 184.207031 152.644531 185.097656 153.148438 186.085938 153.148438 C 187.09375 153.148438 188.023438 152.605469 188.511719 151.730469 L 192.957031 143.789062 C 193.4375 142.933594 193.425781 141.875 192.929688 141.03125 C 192.433594 140.183594 191.515625 139.660156 190.535156 139.660156 Z M 190.535156 141.804688 C 191.011719 141.804688 191.316406 142.320312 191.082031 142.742188 L 186.636719 150.679688 C 186.515625 150.894531 186.300781 151 186.085938 151 C 185.878906 151 185.667969 150.902344 185.546875 150.695312 L 184.257812 148.535156 L 155.253906 168.109375 C 154.972656 168.296875 154.652344 168.390625 154.328125 168.390625 C 154 168.390625 153.671875 168.292969 153.390625 168.097656 L 145.03125 162.328125 L 131.417969 168.253906 C 131.234375 168.332031 131.042969 168.378906 130.851562 168.386719 L 130.851562 164.898438 L 144.554688 158.9375 C 144.765625 158.84375 144.988281 158.796875 145.214844 158.796875 C 145.542969 158.796875 145.871094 158.898438 146.152344 159.089844 L 154.339844 164.742188 L 182.5625 145.695312 L 180.890625 142.894531 C 180.640625 142.480469 180.9375 141.949219 181.421875 141.945312 L 190.523438 141.804688 C 190.527344 141.804688 190.53125 141.804688 190.535156 141.804688 " fill-opacity="1" fill-rule="nonzero"/></svg>